<svg width="22" height="22" viewBox="0 0 22 22" fill="none" xmlns="http://www.w3.org/2000/svg">
<path d="M6.21172 2.42L4.66255 0.870828C2.06255 2.85333 0.350885 5.90833 0.199219 9.375H2.36589C2.52839 6.50416 4.00172 3.99083 6.21172 2.42ZM19.6342 9.375H21.8009C21.6384 5.90833 19.9267 2.85333 17.3376 0.870828L15.7992 2.42C17.9876 3.99083 19.4717 6.50416 19.6342 9.375ZM17.5001 9.91666C17.5001 6.59083 15.7234 3.80666 12.6251 3.07V2.33333C12.6251 1.43416 11.8992 0.708328 11.0001 0.708328C10.1009 0.708328 9.37505 1.43416 9.37505 2.33333V3.07C6.26588 3.80666 4.50005 6.58 4.50005 9.91666V15.3333L2.33339 17.5V18.5833H19.6667V17.5L17.5001 15.3333V9.91666ZM11.0001 21.8333C11.1517 21.8333 11.2926 21.8225 11.4334 21.79C12.1376 21.6383 12.7117 21.1617 12.9934 20.5117C13.1017 20.2517 13.1559 19.97 13.1559 19.6667H8.82255C8.83339 20.8583 9.79755 21.8333 11.0001 21.8333Z" fill="#671FE8"/>
</svg>
