<svg width="22" height="23" viewBox="0 0 22 23" fill="none" xmlns="http://www.w3.org/2000/svg">
<path d="M21.8037 8.85552H11.2324C11.2324 9.9549 11.2324 12.1537 11.2257 13.253H17.3514C17.1167 14.3524 16.2844 15.8916 15.1085 16.6666C15.1074 16.6655 15.1062 16.6732 15.104 16.6721C13.5405 17.7044 11.4773 17.9386 9.94528 17.6308C7.54394 17.1537 5.64354 15.4122 4.87193 13.2003C4.87642 13.197 4.87979 13.1662 4.88316 13.164C4.40019 11.792 4.40019 9.9549 4.88316 8.85552H4.88203C5.50427 6.83486 7.46195 4.9912 9.86666 4.48658C11.8008 4.07651 13.9831 4.52066 15.5881 6.02241C15.8015 5.81353 18.542 3.13764 18.7475 2.91996C13.2642 -2.04594 4.48443 -0.299023 1.19916 6.11367H1.19804C1.19804 6.11367 1.19916 6.11367 1.19243 6.12576C-0.4328 9.27549 -0.36541 12.987 1.20366 15.9861C1.19916 15.9894 1.19579 15.9916 1.19243 15.9949C2.61436 18.7544 5.20214 20.8707 8.32005 21.6765C11.6323 22.545 15.8475 21.9513 18.6712 19.3975C18.6723 19.3986 18.6734 19.3997 18.6745 19.4008C21.0669 17.246 22.5562 13.5752 21.8037 8.85552Z" fill="#671FE8"/>
</svg>
