<svg width="114" height="54" viewBox="0 0 114 54" fill="none" xmlns="http://www.w3.org/2000/svg">
<path fill-rule="evenodd" clip-rule="evenodd" d="M60.2428 0.775077C61.8854 0.991635 63.0415 2.49881 62.825 4.14145L60.9886 18.071C60.772 19.7137 59.2648 20.8697 57.6222 20.6532C55.9795 20.4366 54.8235 18.9294 55.04 17.2868L56.8764 3.35723C57.093 1.71459 58.6002 0.558523 60.2428 0.775077ZM56.5354 28.897C58.178 29.1136 59.3341 30.6208 59.1175 32.2634L57.2811 46.193C57.0646 47.8356 55.5574 48.9917 53.9147 48.7751C52.2721 48.5586 51.116 47.0514 51.3326 45.4088L53.169 31.4792C53.3855 29.8365 54.8927 28.6805 56.5354 28.897Z" fill="#671FE8"/>
<path fill-rule="evenodd" clip-rule="evenodd" d="M88.9634 48.8459C87.6133 47.8854 87.2975 46.0124 88.258 44.6623L94.7944 35.4748C95.7549 34.1248 97.6279 33.8089 98.978 34.7694C100.328 35.7299 100.644 37.603 99.6834 38.953L93.147 48.1405C92.1865 49.4906 90.3135 49.8064 88.9634 48.8459ZM102.159 30.2975C100.809 29.337 100.494 27.464 101.454 26.1139L107.99 16.9264C108.951 15.5763 110.824 15.2605 112.174 16.221C113.524 17.1815 113.84 19.0546 112.879 20.4046L106.343 29.5921C105.383 30.9422 103.51 31.258 102.159 30.2975Z" fill="#671FE8"/>
<path fill-rule="evenodd" clip-rule="evenodd" d="M1.3692 25.4549C2.55527 24.298 4.45461 24.3216 5.61152 25.5077L12.978 33.0598C14.1349 34.2459 14.1112 36.1452 12.9252 37.3021C11.7391 38.459 9.83976 38.4354 8.68286 37.2493L1.31641 29.6972C0.159506 28.5112 0.183143 26.6118 1.3692 25.4549ZM16.2411 40.7016C17.4272 39.5447 19.3265 39.5684 20.4834 40.7544L27.8499 48.3065C29.0068 49.4926 28.9831 51.3919 27.7971 52.5488C26.611 53.7057 24.7117 53.6821 23.5548 52.496L16.1883 44.9439C15.0314 43.7579 15.055 41.8585 16.2411 40.7016Z" fill="#671FE8"/>
</svg>
