<svg width="79" height="55" viewBox="0 0 79 55" fill="none" xmlns="http://www.w3.org/2000/svg">
<path fill-rule="evenodd" clip-rule="evenodd" d="M57.6286 53.1715C56.6712 54.5237 54.7988 54.8437 53.4466 53.8863L33.1479 39.5134C31.7957 38.556 31.4757 36.6837 32.4331 35.3315C33.3906 33.9792 35.2629 33.6592 36.6151 34.6167L56.9139 48.9895C58.2661 49.9469 58.5861 51.8193 57.6286 53.1715ZM26.606 31.2055C25.6486 32.5577 23.7762 32.8777 22.424 31.9203L2.12526 17.5475C0.773056 16.59 0.453041 14.7177 1.41049 13.3655C2.36794 12.0133 4.24028 11.6932 5.59249 12.6507L25.8912 27.0235C27.2434 27.9809 27.5635 29.8533 26.606 31.2055Z" fill="#671FE8"/>
<path fill-rule="evenodd" clip-rule="evenodd" d="M77.7423 48.3857C76.4379 49.4074 74.5523 49.1782 73.5307 47.8738L60.3459 31.0399C59.3242 29.7355 59.5534 27.8499 60.8578 26.8283C62.1622 25.8066 64.0478 26.0358 65.0695 27.3402L78.2543 44.1741C79.2759 45.4785 79.0467 47.3641 77.7423 48.3857ZM57.5919 22.6585C56.2876 23.6801 54.4019 23.4509 53.3803 22.1465L40.1955 5.31266C39.1739 4.00827 39.4031 2.12266 40.7075 1.10102C42.0119 0.079386 43.8975 0.308601 44.9191 1.61299L58.1039 18.4469C59.1255 19.7512 58.8963 21.6369 57.5919 22.6585Z" fill="#671FE8"/>
</svg>
