<svg width="24" height="25" viewBox="0 0 24 25" fill="none" xmlns="http://www.w3.org/2000/svg">
<path d="M12 0.0512695C5.376 0.0512695 0 5.42727 0 12.0513C0 18.6753 5.376 24.0513 12 24.0513C18.624 24.0513 24 18.6753 24 12.0513C24 5.42727 18.624 0.0512695 12 0.0512695ZM11.6822 21.0513C6.88527 21.0513 3 17.166 3 12.3691C3 10.3613 3.68372 8.51639 4.83411 7.05127L17 19.2172C15.5349 20.3675 13.6899 21.0513 11.6822 21.0513ZM19.1659 17.0513L7 4.88538C8.46512 3.73499 10.3101 3.05127 12.3178 3.05127C17.1147 3.05127 21 6.93654 21 11.7334C21 13.7412 20.3163 15.5862 19.1659 17.0513Z" fill="#671FE8"/>
</svg>
