<svg width="22" height="25" viewBox="0 0 22 25" fill="none" xmlns="http://www.w3.org/2000/svg">
<path d="M18.764 10.0512H14.093C14.0222 10.0516 13.9546 10.0219 13.9071 9.96937C13.8596 9.91689 13.8366 9.84665 13.844 9.77624L14.463 3.58624C14.581 2.36901 13.9982 1.19024 12.9594 0.54498C11.9205 -0.10028 10.6056 -0.10028 9.5667 0.54498C8.52786 1.19024 7.94505 2.36901 8.06304 3.58624L8.68204 9.77624C8.68876 9.84617 8.66587 9.91571 8.61893 9.96798C8.57199 10.0202 8.50529 10.0504 8.43504 10.0512H3.76404C2.38333 10.0512 1.26404 11.1705 1.26404 12.5512V13.5512C1.26404 14.1035 1.71176 14.5512 2.26404 14.5512H20.264C20.8163 14.5512 21.264 14.1035 21.264 13.5512V12.5512C21.264 11.1705 20.1448 10.0512 18.764 10.0512ZM12.264 3.80124C12.264 4.35352 11.8163 4.80124 11.264 4.80124C10.7118 4.80124 10.264 4.35352 10.264 3.80124C10.264 3.24895 10.7118 2.80124 11.264 2.80124C11.8163 2.80124 12.264 3.24895 12.264 3.80124ZM20.264 16.5512C20.264 16.2751 20.0402 16.0512 19.764 16.0512H2.76404C2.4879 16.0512 2.26404 16.2751 2.26404 16.5512V17.8512C2.26602 19.5033 1.79251 21.121 0.900042 22.5112C0.703039 22.8183 0.688876 23.2083 0.863086 23.5288C1.0373 23.8493 1.37223 24.0495 1.73704 24.0512H3.23704C4.40707 24.0522 5.49989 23.4673 6.14804 22.4932C6.36104 22.1762 6.58704 21.8312 6.80904 21.4932C6.86922 21.4001 6.98357 21.3577 7.08992 21.3891C7.19627 21.4206 7.2692 21.5183 7.26904 21.6292V23.0512C7.26904 23.6035 7.71676 24.0512 8.26904 24.0512H12.519C12.6571 24.0512 12.769 23.9393 12.769 23.8012V21.3012C12.769 21.0251 12.9929 20.8012 13.269 20.8012C13.5452 20.8012 13.769 21.0251 13.769 21.3012V23.8012C13.7688 23.8676 13.795 23.9314 13.842 23.9783C13.8889 24.0253 13.9527 24.0515 14.019 24.0512H16.019C16.1571 24.0512 16.269 23.9393 16.269 23.8012V19.5512C16.269 19.2751 16.4929 19.0512 16.769 19.0512C17.0452 19.0512 17.269 19.2751 17.269 19.5512V23.8012C17.2688 23.8676 17.295 23.9314 17.342 23.9783C17.3889 24.0253 17.4527 24.0515 17.519 24.0512H19.269C19.8213 24.0512 20.269 23.6035 20.269 23.0512L20.264 16.5512Z" fill="#671FE8"/>
</svg>
