<svg width="24" height="25" viewBox="0 0 24 25" fill="none" xmlns="http://www.w3.org/2000/svg">
<path d="M17.5112 14.0363L16.6652 13.1903C16.47 12.9951 16.1535 12.9951 15.9582 13.1903L13.1342 16.0143C12.939 16.2095 12.939 16.526 13.1342 16.7213L13.9832 17.5703C14.1001 17.6914 14.1482 17.8631 14.1112 18.0273C13.8012 19.4978 14.17 21.0297 15.1151 22.1981C16.0603 23.3665 17.4814 24.0472 18.9842 24.0513C19.5249 24.0511 20.0621 23.964 20.5752 23.7933C20.7404 23.7396 20.8658 23.604 20.9066 23.4352C20.9474 23.2663 20.8976 23.0885 20.7752 22.9653L18.3262 20.5163C18.2325 20.4223 18.18 20.295 18.1802 20.1623V18.7513C18.1802 18.4751 18.4041 18.2513 18.6802 18.2513H20.0932C20.226 18.2513 20.3534 18.3042 20.4472 18.3983L22.9002 20.8513C23.0224 20.9734 23.199 21.0239 23.3673 20.9846C23.5356 20.9453 23.6717 20.8219 23.7272 20.6583C24.3094 18.9578 23.9325 17.0757 22.7405 15.7306C21.5484 14.3854 19.7253 13.7849 17.9672 14.1583C17.8044 14.1964 17.6332 14.1506 17.5112 14.0363ZM10.8662 7.39127L10.0162 6.54127C9.89866 6.42016 9.85015 6.24793 9.8872 6.08327C10.26 4.32587 9.65982 2.50368 8.31554 1.31189C6.97126 0.120094 5.09027 -0.257457 3.3902 0.323275C3.22663 0.37933 3.10364 0.515916 3.06497 0.684442C3.02629 0.852969 3.07744 1.02951 3.2002 1.15127L5.6562 3.60927C5.74967 3.70298 5.80217 3.82992 5.8022 3.96227V5.37627C5.8022 5.65242 5.57835 5.87627 5.3022 5.87627H3.8882C3.75571 5.87598 3.62874 5.82311 3.5352 5.72927L1.0862 3.28127C0.963026 3.15883 0.785131 3.10907 0.616304 3.14985C0.447477 3.19063 0.311906 3.3161 0.258203 3.48127C-0.305629 5.17826 0.0810976 7.0472 1.27208 8.38107C2.46307 9.71494 4.27644 10.3101 6.0262 9.94127C6.19054 9.90458 6.36231 9.95307 6.4832 10.0703L7.3352 10.9223C7.53045 11.1175 7.84695 11.1175 8.0422 10.9223L10.8662 8.09827C11.0614 7.90302 11.0614 7.58652 10.8662 7.39127ZM16.6472 9.67327L14.3832 7.40927C14.188 7.21408 13.8715 7.21408 13.6762 7.40927L1.0882 19.9973C0.307439 20.7783 0.307439 22.0443 1.0882 22.8253L1.2312 22.9683C1.6063 23.3435 2.11513 23.5543 2.6457 23.5543C3.17628 23.5543 3.68511 23.3435 4.0602 22.9683L16.6472 10.3803C16.8424 10.185 16.8424 9.86852 16.6472 9.67327ZM19.0132 9.65627C19.5462 10.1872 20.4082 10.1872 20.9412 9.65627L23.6012 6.99627C24.1332 6.46371 24.1332 5.60084 23.6012 5.06827L19.6392 1.10627C19.4744 0.941555 19.2176 0.91252 19.0202 1.03627C17.4746 1.87965 15.5531 1.56119 14.3622 0.264275C14.164 0.0764617 13.8535 0.0764617 13.6552 0.264275L12.6002 1.31727C12.0682 1.84984 12.0682 2.71271 12.6002 3.24527L19.0132 9.65627Z" fill="#671FE8"/>
</svg>
