<svg width="24" height="25" viewBox="0 0 24 25" fill="none" xmlns="http://www.w3.org/2000/svg">
<path d="M22.53 6.29367C22.5816 6.67647 22.6104 7.08567 22.6104 7.52727C22.6104 9.63687 22.4148 9.75567 18.0324 22.4241C21.6 20.3433 24 16.4781 24 12.0513C24 9.96447 23.4672 8.00247 22.53 6.29367ZM12.2112 13.1013L8.61 23.5629C11.04 24.2781 13.6152 24.2049 15.9852 23.3721C15.9528 23.3205 15.924 23.2653 15.9 23.2065L12.2112 13.1013ZM20.1012 11.4453C20.1012 9.96207 19.5684 8.93487 19.1112 8.13567C18.504 7.14687 17.9328 6.31047 17.9328 5.32167C17.9328 4.21887 18.7704 3.19167 19.9488 3.19167C20.0016 3.19167 20.052 3.19887 20.1036 3.20127C17.9688 1.24527 15.1248 0.0512695 12 0.0512695C7.8084 0.0512695 4.1196 2.20167 1.974 5.45967C2.7384 5.48367 3.7644 5.49327 5.9448 5.32287C6.5916 5.28447 6.6672 6.23487 6.0216 6.31047C6.0216 6.31047 5.3712 6.38727 4.6476 6.42567L9.018 19.4241L11.6436 11.5473L9.774 6.42447C9.1284 6.38727 8.5164 6.31047 8.5164 6.31047C7.8696 6.27207 7.9452 5.28327 8.592 5.32167C11.0724 5.51247 12.342 5.52687 14.9508 5.32167C15.5976 5.28327 15.6744 6.23367 15.0276 6.31047C15.0276 6.31047 14.376 6.38727 13.6536 6.42447L17.9904 19.3245C19.7028 13.6029 20.1012 12.6453 20.1012 11.4453ZM0 12.0513C0 16.8009 2.76 20.9061 6.7632 22.8513L1.0392 7.16727C0.3732 8.66007 0 10.3113 0 12.0513Z" fill="#671FE8"/>
</svg>
