<svg width="26" height="27" viewBox="0 0 26 27" fill="none" xmlns="http://www.w3.org/2000/svg">
<path d="M5.28125 8.67627C5.95481 8.67627 6.5 9.22227 6.5 9.89502C6.5 10.5686 5.95481 11.1138 5.28125 11.1138C4.60769 11.1138 4.0625 10.5686 4.0625 9.89502C4.0625 9.22227 4.60769 8.67627 5.28125 8.67627ZM10.1562 8.67627C10.8298 8.67627 11.375 9.22227 11.375 9.89502C11.375 10.5686 10.8298 11.1138 10.1562 11.1138C9.48269 11.1138 8.9375 10.5686 8.9375 9.89502C8.9375 9.22227 9.48269 8.67627 10.1562 8.67627ZM15.0312 8.67627C15.7048 8.67627 16.25 9.22227 16.25 9.89502C16.25 10.5686 15.7048 11.1138 15.0312 11.1138C14.3577 11.1138 13.8125 10.5686 13.8125 9.89502C13.8125 9.22227 14.3577 8.67627 15.0312 8.67627ZM7.83006 19.0243C8.46138 19.1275 9.89706 19.2388 10.5625 19.2388C16.3962 19.2388 20.3125 14.8976 20.3125 9.79346C20.3125 4.68933 15.4188 0.55127 10.5625 0.55127C4.72144 0.55127 0 4.68933 0 9.79346C0 12.751 1.12694 15.2608 3.25 17.0686V21.6763L7.83006 19.0243ZM21.8961 7.97671L21.9375 8.67627C21.944 9.34008 21.9375 9.27914 21.9375 9.89502C21.9375 16.3747 16.8317 20.8638 9.75 20.8638H7.3125C9.24625 22.7553 11.4961 23.9106 14.625 23.9106C15.2904 23.9106 15.9396 23.8505 16.5709 23.7473L21.125 26.5513V21.9436C23.595 20.2511 25.1875 17.626 25.1875 14.6685C25.1875 12.0327 23.9192 9.66021 21.8961 7.97671Z" fill="#671FE8"/>
</svg>
