<svg width="69" height="59" viewBox="0 0 69 59" fill="none" xmlns="http://www.w3.org/2000/svg">
<path fill-rule="evenodd" clip-rule="evenodd" d="M37.64 58.3287C36.3257 57.3199 36.0781 55.4366 37.087 54.1223L46.8643 41.385C47.8731 40.0707 49.7564 39.8231 51.0707 40.8319C52.385 41.8408 52.6326 43.7241 51.6238 45.0384L41.8464 57.7757C40.8376 59.09 38.9543 59.3376 37.64 58.3287ZM53.6895 37.4203C52.3753 36.4114 52.1277 34.5281 53.1365 33.2139L62.9138 20.4765C63.9227 19.1622 65.806 18.9146 67.1203 19.9235C68.4346 20.9324 68.6822 22.8157 67.6733 24.13L57.896 36.8673C56.8871 38.1816 55.0038 38.4292 53.6895 37.4203Z" fill="#671FE8"/>
<path fill-rule="evenodd" clip-rule="evenodd" d="M36.8027 2.3377C37.4917 3.84453 36.8286 5.62455 35.3218 6.31349L23.6025 11.6717C22.0956 12.3607 20.3156 11.6976 19.6267 10.1908C18.9377 8.68398 19.6008 6.90396 21.1076 6.21502L32.8269 0.856789C34.3338 0.167849 36.1138 0.830878 36.8027 2.3377ZM17.5653 11.1333C18.2542 12.6401 17.5912 14.4201 16.0844 15.1091L4.36505 20.4673C2.85822 21.1562 1.0782 20.4932 0.389261 18.9864C-0.299679 17.4796 0.36335 15.6995 1.87018 15.0106L13.5895 9.65237C15.0963 8.96343 16.8764 9.62646 17.5653 11.1333Z" fill="#671FE8"/>
</svg>
