<svg width="24" height="24" viewBox="0 0 24 24" fill="none" xmlns="http://www.w3.org/2000/svg">
<path d="M23.4919 6.32626L17.7279 0.561261C17.4101 0.242434 16.9645 0.0854612 16.517 0.134683C16.0696 0.183904 15.6688 0.433976 15.4279 0.814261L11.3279 7.25726C9.46998 6.81493 7.51321 7.10122 5.85989 8.05726C5.46354 8.28865 5.19696 8.69082 5.13823 9.146C5.07949 9.60117 5.23525 10.0578 5.55989 10.3823L13.6649 18.4823C13.9906 18.804 14.4454 18.9594 14.8999 18.9043C15.355 18.8458 15.7575 18.58 15.9899 18.1843C16.9501 16.5328 17.2366 14.5746 16.7899 12.7173L23.2329 8.61726C23.6117 8.37642 23.8608 7.97666 23.91 7.53046C23.9592 7.08425 23.8032 6.63984 23.4859 6.32226L23.4919 6.32626ZM17.2919 3.47826L15.1719 6.81126C15.0209 7.04012 14.7155 7.10783 14.4819 6.96426C14.2489 6.81622 14.1799 6.50733 14.3279 6.27426L16.4489 2.94226C16.5429 2.7877 16.7131 2.69601 16.8939 2.70248C17.0747 2.70896 17.2379 2.81261 17.3207 2.9735C17.4034 3.13439 17.3928 3.32743 17.2929 3.47826H17.2919ZM6.45389 15.4793L0.513887 21.4193C-0.0716862 22.005 -0.0716862 22.9545 0.513887 23.5403C1.10342 24.1166 2.04535 24.1166 2.63489 23.5403L8.57489 17.6003C9.14334 17.0117 9.13521 16.0761 8.55661 15.4975C7.97801 14.9189 7.04245 14.9108 6.45389 15.4793Z" fill="#671FE8"/>
</svg>
