<svg width="24" height="25" viewBox="0 0 24 25" fill="none" xmlns="http://www.w3.org/2000/svg">
<path d="M20 19.0513V10.0513C20 9.49898 19.5523 9.05127 19 9.05127H1C0.447715 9.05127 0 9.49898 0 10.0513V19.0513C0 19.6036 0.447715 20.0513 1 20.0513H19C19.5523 20.0513 20 19.6036 20 19.0513ZM6 16.9273C6.34518 16.9273 6.625 17.2071 6.625 17.5523C6.625 17.8974 6.34518 18.1773 6 18.1773C3.99797 18.1773 2.375 16.5543 2.375 14.5523C2.375 12.5502 3.99797 10.9273 6 10.9273C6.34518 10.9273 6.625 11.2071 6.625 11.5523C6.625 11.8974 6.34518 12.1773 6 12.1773C4.68832 12.1773 3.625 13.2406 3.625 14.5523C3.625 15.8639 4.68832 16.9273 6 16.9273ZM8.927 13.4193L10.767 14.6453C11.4734 15.1164 11.7884 15.9941 11.5429 16.8068C11.2973 17.6196 10.549 18.1761 9.7 18.1773H8C7.65482 18.1773 7.375 17.8974 7.375 17.5523C7.375 17.2071 7.65482 16.9273 8 16.9273H9.7C9.99868 16.9271 10.2621 16.7316 10.3486 16.4457C10.4352 16.1599 10.3245 15.851 10.076 15.6853L8.236 14.4593C7.5301 13.9885 7.21494 13.1116 7.45968 12.2991C7.70442 11.4867 8.45152 10.9298 9.3 10.9273H11C11.3452 10.9273 11.625 11.2071 11.625 11.5523C11.625 11.8974 11.3452 12.1773 11 12.1773H9.3C9.00132 12.1774 8.73791 12.373 8.65137 12.6588C8.56482 12.9447 8.67554 13.2535 8.924 13.4193H8.927ZM13.927 13.4193L15.767 14.6453C16.4738 15.1167 16.7888 15.9952 16.5424 16.8083C16.2961 17.6214 15.5466 18.1774 14.697 18.1773H13C12.6548 18.1773 12.375 17.8974 12.375 17.5523C12.375 17.2071 12.6548 16.9273 13 16.9273H14.7C14.9987 16.9271 15.2621 16.7316 15.3486 16.4457C15.4352 16.1599 15.3245 15.851 15.076 15.6853L13.236 14.4593C12.5292 13.9879 12.2142 13.1094 12.4606 12.2963C12.7069 11.4832 13.4564 10.9272 14.306 10.9273H16C16.3452 10.9273 16.625 11.2071 16.625 11.5523C16.625 11.8974 16.3452 12.1773 16 12.1773H14.3C14.0013 12.1774 13.7379 12.373 13.6514 12.6588C13.5648 12.9447 13.6755 13.2535 13.924 13.4193H13.927Z" fill="#671FE8"/>
<path d="M23.707 5.75927L18.293 0.34527C18.1057 0.157353 17.8513 0.0515913 17.586 0.0512695H6C4.89543 0.0512695 4 0.9467 4 2.05127V7.80127C4 7.93934 4.11193 8.05127 4.25 8.05127H5.75C5.88768 8.05127 5.99945 7.93995 6 7.80227V2.55127C6 2.27513 6.22386 2.05127 6.5 2.05127H16.75C16.8881 2.05127 17 2.1632 17 2.30127V5.05127C17 6.15584 17.8954 7.05127 19 7.05127H21.75C21.8881 7.05127 22 7.1632 22 7.30127V21.5513C22 21.8274 21.7761 22.0513 21.5 22.0513H6.25C6.11193 22.0513 6 21.9393 6 21.8013V21.3013C6 21.1632 5.88807 21.0513 5.75 21.0513H4.25C4.11193 21.0513 4 21.1632 4 21.3013V22.0513C4 23.1558 4.89543 24.0513 6 24.0513H22C23.1046 24.0513 24 23.1558 24 22.0513V6.46627C24 6.20107 23.8946 5.94676 23.707 5.75927Z" fill="#671FE8"/>
</svg>
