<svg width="55" height="54" viewBox="0 0 55 54" fill="none" xmlns="http://www.w3.org/2000/svg">
<path fill-rule="evenodd" clip-rule="evenodd" d="M54.1854 12.8322C54.4783 13.6071 54.0876 14.4728 53.3126 14.7657L17.1696 28.4278L13.982 40.3243L19.308 38.3289C20.0838 38.0383 20.9483 38.4316 21.2389 39.2074C21.5296 39.9831 21.1363 40.8476 20.3605 41.1383L12.3049 44.1562C11.7788 44.3533 11.1866 44.2398 10.7705 43.8622C10.3545 43.4845 10.1844 42.906 10.3298 42.3633L14.4709 26.9085C14.5959 26.442 14.9378 26.0643 15.3894 25.8936L52.2519 11.9595C53.0268 11.6666 53.8925 12.0573 54.1854 12.8322Z" fill="#671FE8"/>
<path fill-rule="evenodd" clip-rule="evenodd" d="M54.0145 12.5076C54.3259 12.9561 54.369 13.5384 54.127 14.0279L36.0468 50.5944C35.8219 51.0493 35.3822 51.3597 34.8782 51.4192C34.3742 51.4787 33.8742 51.2794 33.5495 50.8894L6.91969 18.9073C6.565 18.4813 6.47415 17.8944 6.68342 17.3812C6.8927 16.8679 7.36799 16.5118 7.91941 16.4553L52.6294 11.8709C53.1726 11.8152 53.7031 12.0591 54.0145 12.5076ZM11.0275 19.1523L34.3796 47.1978L50.2343 15.1322L11.0275 19.1523Z" fill="#671FE8"/>
</svg>
