<svg xmlns="http://www.w3.org/2000/svg" width="24" height="15" viewBox="0 0 24 15">
  <path fill="#BBC7D5" d="M22.2692344,0 L1.73076563,0 C0.776414063,0 0,0.776414062 0,1.73076563 L0,13.2692344 C0,14.2236328 0.776414063,15 1.73076563,15 L22.2692344,15 C23.2236328,15 24,14.2236328 24,13.2692344 L24,1.73076563 C24,0.776414062 23.2236328,0 22.2692344,0 Z M13.5,11.9970703 L10.5,12 L10.5,7.5 L8.25,10.3846172 L6,7.5 L6,12 L3,12 L3,3 L6,3 L8.25,6 L10.5,3 L13.5,2.99707031 L13.5,11.9970703 Z M17.9786953,12.7470703 L14.25,7.5 L16.5,7.5 L16.5,3 L19.5,3 L19.5,7.5 L21.75,7.5 L17.9786953,12.7470703 Z"/>
</svg>
