<svg width="24" height="25" viewBox="0 0 24 25" fill="none" xmlns="http://www.w3.org/2000/svg">
<path d="M24.0002 6.55128C24.0003 5.30726 23.0857 4.25244 21.8542 4.07628L21.3232 4.00028C21.0455 3.96057 20.7848 3.84303 20.5712 3.66128L20.3912 3.48128C20.2087 3.26685 20.0908 3.00505 20.0512 2.72628L19.9752 2.19628C19.8477 1.30946 19.2555 0.558636 18.4227 0.228174C17.59 -0.102287 16.644 0.0381451 15.9432 0.596284C15.877 0.648342 15.7893 0.664086 15.7092 0.638284C13.2985 -0.144402 10.7019 -0.144402 8.29119 0.638284C8.21106 0.664086 8.12335 0.648342 8.05719 0.596284C7.35635 0.0381451 6.41042 -0.102287 5.57766 0.228174C4.74489 0.558636 4.15264 1.30946 4.02519 2.19628L3.94919 2.72828C3.90958 3.00548 3.79241 3.26582 3.61119 3.47928C3.54919 3.53995 3.48819 3.60095 3.42819 3.66228C3.21462 3.84332 2.95432 3.96046 2.67719 4.00028L2.14619 4.07628C1.23544 4.20658 0.469844 4.82657 0.153083 5.69035C-0.163677 6.55413 0.0195903 7.52209 0.630193 8.21028C-1.03787 13.1516 0.676599 18.6046 4.87222 21.7023C9.06784 24.8 14.7839 24.8331 19.0151 21.7842C23.2463 18.7353 25.0239 13.3026 23.4132 8.34228C23.3874 8.26215 23.4031 8.17444 23.4552 8.10828C23.8086 7.66632 24.0007 7.11715 24.0002 6.55128ZM2.43019 7.05128C2.18379 7.01617 2.00073 6.80518 2.00073 6.55628C2.00073 6.30739 2.18379 6.0964 2.43019 6.06128L2.96019 5.98628C4.49843 5.75945 5.70546 4.54998 5.92919 3.01128L6.00519 2.48028C6.0403 2.23388 6.2513 2.05082 6.50019 2.05082C6.74909 2.05082 6.96008 2.23388 6.99519 2.48028L7.07119 3.01028C7.29654 4.54742 8.50321 5.7549 10.0402 5.98128L10.5702 6.05628C10.8166 6.09139 10.9997 6.30239 10.9997 6.55128C10.9997 6.80018 10.8166 7.01117 10.5702 7.04628L10.0402 7.12128C8.50352 7.34755 7.29694 8.55454 7.07119 10.0913L7.00019 10.6223C6.96508 10.8687 6.75409 11.0518 6.50519 11.0518C6.2563 11.0518 6.0453 10.8687 6.01019 10.6223L5.93419 10.0923C5.70828 8.55358 4.49912 7.34565 2.96019 7.12128L2.43019 7.05128ZM17.6302 15.3063C16.4693 17.3182 14.323 18.5577 12.0002 18.5577C9.67737 18.5577 7.53109 17.3182 6.37019 15.3063C6.27857 15.1518 6.2769 14.9599 6.3658 14.8038C6.45471 14.6477 6.62054 14.5513 6.80019 14.5513H17.2002C17.3788 14.5513 17.5439 14.6466 17.6332 14.8013C17.7225 14.956 17.7225 15.1466 17.6332 15.3013L17.6302 15.3063ZM21.5702 7.05128L21.0402 7.12628C19.5035 7.35255 18.2969 8.55954 18.0712 10.0963L18.0002 10.6223C17.9651 10.8687 17.7541 11.0518 17.5052 11.0518C17.2563 11.0518 17.0453 10.8687 17.0102 10.6223L16.9342 10.0923C16.7083 8.55358 15.4991 7.34565 13.9602 7.12128L13.4302 7.05128C13.1838 7.01617 13.0007 6.80518 13.0007 6.55628C13.0007 6.30739 13.1838 6.0964 13.4302 6.06128L13.9602 5.98628C15.4969 5.76001 16.7034 4.55303 16.9292 3.01628L17.0052 2.48528C17.0403 2.23888 17.2513 2.05582 17.5002 2.05582C17.7491 2.05582 17.9601 2.23888 17.9952 2.48528L18.0712 3.01528C18.2986 4.55048 19.5048 5.75547 21.0402 5.98128L21.5702 6.05628C21.8166 6.09139 21.9997 6.30239 21.9997 6.55128C21.9997 6.80018 21.8166 7.01117 21.5702 7.04628V7.05128Z" fill="#671FE8"/>
</svg>
