<svg width="13" height="10" viewBox="0 0 13 10" fill="none" xmlns="http://www.w3.org/2000/svg">
<path fill-rule="evenodd" clip-rule="evenodd" d="M13 5C13 4.44772 12.5523 4 12 4H1C0.447715 4 0 4.44772 0 5C0 5.55228 0.447715 6 1 6H12C12.5523 6 13 5.55228 13 5Z" fill="white"/>
<path fill-rule="evenodd" clip-rule="evenodd" d="M7.29289 0.292893C6.90237 0.683417 6.90237 1.31658 7.29289 1.70711L10.5858 5L7.29289 8.29289C6.90237 8.68342 6.90237 9.31658 7.29289 9.70711C7.68342 10.0976 8.31658 10.0976 8.70711 9.70711L12.7071 5.70711C13.0976 5.31658 13.0976 4.68342 12.7071 4.29289L8.70711 0.292893C8.31658 -0.0976311 7.68342 -0.0976311 7.29289 0.292893Z" fill="white"/>
</svg>
