<svg width="16" height="29" viewBox="0 0 16 29" fill="none" xmlns="http://www.w3.org/2000/svg">
<path d="M13.481 0.549437C13.5646 0.466012 13.5897 0.340377 13.5445 0.23125C13.4992 0.122124 13.3926 0.0510591 13.2745 0.05127H9.6345C9.55711 0.05127 9.48287 0.0818791 9.428 0.136437L0.964996 8.59944C0.888853 8.67582 0.860644 8.78776 0.891496 8.8911C0.955534 9.10632 1.03348 9.31715 1.12483 9.52227L2.0185 11.4554C2.05925 11.54 2.13804 11.5999 2.2304 11.6165C2.32276 11.6331 2.41749 11.6045 2.48516 11.5394L13.481 0.549437ZM15.665 5.29077C15.7197 5.23647 15.7504 5.16252 15.7502 5.08544V1.80127C15.75 1.67617 15.7367 1.55142 15.7105 1.4291C15.6876 1.32501 15.6097 1.2417 15.5074 1.21181C15.4051 1.18192 15.2947 1.21021 15.2193 1.2856L3.11983 13.3839C3.03319 13.4704 3.00946 13.6016 3.06033 13.7129L3.64366 14.9858C3.85952 15.42 4.19882 15.7808 4.619 16.0229C4.73376 16.0914 4.88038 16.0732 4.97483 15.9786L15.665 5.29077ZM6.5405 0.549437C6.62398 0.466162 6.64911 0.34081 6.60418 0.231789C6.55924 0.122769 6.45308 0.0515311 6.33516 0.0512705H2.3335C1.367 0.0512705 0.583496 0.834772 0.583496 1.80127V5.80294C0.583757 5.92086 0.654994 6.02702 0.764015 6.07195C0.873035 6.11689 0.998388 6.09176 1.08166 6.00827L6.5405 0.549437ZM7.08533 16.3461C7.0312 16.4013 7.00065 16.4753 7.00016 16.5526V17.4533C7.0005 17.5848 6.91244 17.7001 6.7855 17.7344C4.16236 18.4498 2.51944 21.0496 2.99921 23.7258C3.47897 26.4021 5.92265 28.2693 8.63094 28.0289C11.3392 27.7885 13.4159 25.5202 13.4168 22.8013C13.4168 22.1569 12.8945 21.6346 12.2502 21.6346C11.6058 21.6346 11.0835 22.1569 11.0835 22.8013C11.0831 24.3275 9.90619 25.5954 8.3842 25.7091C6.86221 25.8229 5.50989 24.744 5.28267 23.2348C5.05544 21.7256 6.03016 20.2964 7.51816 19.9569C8.58275 19.7195 9.33827 18.7727 9.3335 17.6819V16.6763C9.3335 16.5152 9.46408 16.3846 9.62516 16.3846H10.5002C11.4275 16.3434 12.2619 15.8094 12.6877 14.9846L15.2042 9.57127C15.3338 9.28531 15.4384 8.98864 15.5168 8.6846C15.5504 8.55732 15.4945 8.42335 15.3805 8.35761C15.2664 8.29187 15.1225 8.31064 15.0292 8.40344L7.08533 16.3461Z" fill="#671FE8"/>
</svg>
