<svg xmlns="http://www.w3.org/2000/svg" width="128" height="128" viewBox="0 0 128 128">
  <g fill="none" fill-rule="evenodd">
    <rect width="128" height="128" fill="#5908BE"/>
    <g fill="#FFF" fill-rule="nonzero" transform="translate(24 28)">
      <path d="M78.8706476,31.6507344 L62.9355344,4.05328406 C61.4776397,1.54618653 58.7973306,0.00264058044 55.8971603,-7.10542736e-15 L24.0561995,-7.10542736e-15 C21.1560292,0.00264058044 18.4757201,1.54618653 17.0178254,4.05328406 L1.09734503,31.6507344 C-0.365781675,34.1574851 -0.365781675,37.2578682 1.09734503,39.7646189 L17.0178254,67.3620693 C18.4709193,69.8758958 21.1526176,71.4258171 24.0561995,71.4299861 L76.1635806,71.4299861 C76.8200706,71.4249019 77.4247524,71.0724681 77.7527382,70.5037588 C78.080724,69.9350495 78.0829374,69.2351604 77.7585552,68.664388 L69.9812249,55.1949007 L78.8706476,39.7353533 C80.3013796,37.2303775 80.3013796,34.1557103 78.8706476,31.6507344 L78.8706476,31.6507344 Z M56.6580656,58.7214042 C55.6031779,60.5487185 53.6464475,61.6668501 51.5365875,61.6481986 L28.3875067,61.6481986 C26.2800467,61.6576878 24.3275916,60.5419992 23.2660286,58.7214042 L11.669539,38.659843 C10.6165336,36.8299673 10.6165336,34.5780697 11.669539,32.748194 L23.2660286,12.6646836 C24.3209164,10.8373692 26.2776467,9.71923762 28.3875067,9.73788916 L51.5804859,9.73788916 C53.6903459,9.71923762 55.6470762,10.8373692 56.701964,12.6646836 L68.2984536,32.7262448 C69.3514589,34.5561205 69.3514589,36.8080181 68.2984536,38.6378938 L56.6580656,58.7214042 Z"/>
      <polygon points="43.737 29.192 47.483 35.682 21.239 35.682 30.619 19.454 49.356 19.454"/>
    </g>
  </g>
</svg>
