<?xml version="1.0" encoding="UTF-8"?><svg id="a" xmlns="http://www.w3.org/2000/svg" xmlns:xlink="http://www.w3.org/1999/xlink" viewBox="0 0 1280 784"><defs><style>.e,.f{fill:none;}.g{fill:#671fe6;}.h,.i{fill:#671fe8;}.j{fill:#3e00ac;}.k{fill:#5010c2;}.l{fill:rgba(103,31,232,.4);}.i{fill-rule:evenodd;}.m{clip-path:url(#c);}.n{clip-path:url(#b);}.o{clip-path:url(#d);}.f{stroke:#6923e8;}</style><clipPath id="b"><rect x="1112" y="12" width="156" height="28" style="fill:none;"/></clipPath><clipPath id="c"><rect x="134" y="12" width="66" height="28" style="fill:none;"/></clipPath><clipPath id="d"><rect x="559.09" y="20.28" width="161.83" height="11.43" style="fill:none;"/></clipPath></defs><rect width="1280" height="784" rx="10" ry="10" style="fill:#671fe8;"/><path d="M0,10C0,4.48,4.48,0,10,0H1270c5.52,0,10,4.48,10,10V53H0V10Z" style="fill:#5010c2;"/><path d="M0,10C0,4.48,4.48,0,10,0H1270c5.52,0,10,4.48,10,10V53H0V10Z" style="fill:#3e00ac;"/><g style="clip-path:url(#b);"><g><path d="M1128.5,34.47c4.63,0,8.47-3.84,8.47-8.47s-3.85-8.47-8.48-8.47-8.46,3.83-8.46,8.47,3.85,8.47,8.47,8.47Zm0-1.41c-3.92,0-7.05-3.14-7.05-7.06s3.12-7.06,7.04-7.06,7.06,3.14,7.07,7.06c0,3.92-3.14,7.06-7.06,7.06Zm0-11.28c-.36,0-.62,.26-.62,.62v4.15l.06,1.75-.83-1-.98-1c-.12-.11-.27-.18-.44-.18-.34,0-.6,.27-.6,.6,0,.17,.05,.32,.16,.43l2.77,2.76c.16,.17,.31,.23,.48,.23,.18,0,.33-.07,.49-.23l2.76-2.76c.11-.11,.18-.26,.18-.43,0-.33-.27-.6-.61-.6-.18,0-.33,.07-.44,.18l-.98,1-.84,1,.06-1.76v-4.15c0-.37-.25-.62-.62-.62Z" style="fill:#671fe8;"/><path d="M1169.5,28.26c.36,0,.66-.3,.66-.65v-8.52l-.05-1.25,.56,.59,1.25,1.34c.12,.13,.29,.2,.45,.2,.35,0,.61-.25,.61-.59,0-.17-.07-.31-.19-.43l-2.81-2.71c-.16-.17-.31-.22-.48-.22s-.32,.06-.48,.22l-2.81,2.71c-.12,.12-.2,.26-.2,.43,0,.34,.26,.59,.6,.59,.17,0,.34-.07,.46-.2l1.26-1.34,.56-.59-.05,1.25v8.52c0,.35,.3,.65,.66,.65Zm-4.76,6.5h9.52c1.73,0,2.6-.86,2.6-2.57v-8.28c0-1.71-.87-2.57-2.6-2.57h-2.32v1.34h2.29c.82,0,1.3,.45,1.3,1.31v8.13c0,.86-.48,1.31-1.3,1.31h-9.48c-.83,0-1.28-.45-1.28-1.31v-8.13c0-.86,.45-1.31,1.28-1.31h2.3v-1.34h-2.31c-1.74,0-2.61,.86-2.61,2.57v8.28c0,1.71,.87,2.57,2.61,2.57Z" style="fill:#671fe8;"/><path d="M1210.5,33c.41,0,.75-.32,.75-.72v-5.52h5.36c.4,0,.74-.34,.74-.75s-.34-.74-.74-.74h-5.36v-5.53c0-.4-.34-.72-.75-.72s-.74,.32-.74,.72v5.53h-5.37c-.4,0-.74,.33-.74,.74s.34,.75,.74,.75h5.37v5.52c0,.4,.33,.72,.74,.72Z" style="fill:#671fe8;"/><path d="M1245.32,30.87h1.42v1.27c0,1.71,.87,2.57,2.61,2.57h8.33c1.73,0,2.6-.86,2.6-2.57v-8.4c0-1.71-.87-2.57-2.6-2.57h-1.42v-1.27c0-1.71-.88-2.57-2.6-2.57h-8.34c-1.74,0-2.6,.86-2.6,2.57v8.4c0,1.71,.86,2.57,2.6,2.57Zm.02-1.34c-.83,0-1.29-.45-1.29-1.31v-8.25c0-.86,.46-1.31,1.29-1.31h8.29c.83,0,1.29,.45,1.29,1.31v1.2h-5.57c-1.74,0-2.61,.85-2.61,2.57v5.79h-1.4Zm4.03,3.84c-.83,0-1.29-.45-1.29-1.31v-8.25c0-.86,.46-1.31,1.29-1.31h8.29c.82,0,1.29,.45,1.29,1.31v8.25c0,.86-.47,1.31-1.29,1.31h-8.29Z" style="fill:#671fe8;"/></g></g><g style="clip-path:url(#c);"><g><path d="M153.26,32.99l-6.58-6.42c-.16-.16-.24-.35-.24-.56s.09-.42,.25-.56l6.57-6.43c.14-.14,.32-.22,.54-.22,.43,0,.76,.33,.76,.76,0,.2-.08,.4-.22,.54l-6.04,5.91,6.04,5.91c.13,.14,.22,.33,.22,.54,0,.43-.32,.76-.76,.76-.22,0-.4-.08-.54-.22Z" style="fill:#671fe8;"/><path d="M180.2,33.22c.22,0,.4-.08,.54-.22l6.58-6.43c.16-.16,.24-.35,.24-.56s-.08-.42-.24-.56l-6.57-6.42c-.15-.15-.33-.23-.55-.23-.43,0-.76,.33-.76,.76,0,.2,.08,.4,.22,.54l6.04,5.91-6.04,5.91c-.13,.14-.22,.33-.22,.54,0,.43,.32,.76,.76,.76Z" style="fill:#671fe8;"/></g></g><path d="M27,32c3.31,0,6-2.69,6-6s-2.69-6-6-6-6,2.69-6,6,2.69,6,6,6Z" style="fill:#671fe8; fill-rule:evenodd;"/><path d="M47,32c3.31,0,6-2.69,6-6s-2.69-6-6-6-6,2.69-6,6,2.69,6,6,6Z" style="fill:#671fe8; fill-rule:evenodd;"/><path d="M67,32c3.31,0,6-2.69,6-6s-2.69-6-6-6-6,2.69-6,6,2.69,6,6,6Z" style="fill:#671fe8; fill-rule:evenodd;"/><g style="clip-path:url(#d);"><g><path d="M560.21,31.72h5.58c.76,0,1.12-.38,1.12-1.2v-4.3c0-.74-.3-1.12-.93-1.18v-1.48c0-2.21-1.45-3.28-2.98-3.28s-2.98,1.07-2.98,3.28v1.51c-.58,.09-.93,.46-.93,1.15v4.3c0,.82,.37,1.2,1.12,1.2Zm.75-8.28c0-1.47,.94-2.25,2.04-2.25s2.04,.78,2.04,2.25v1.59h-4.08v-1.59Z" style="fill:#671fe6;"/><path d="M574.91,24h144c1.1,0,2,.9,2,2h0c0,1.1-.9,2-2,2h-144c-1.1,0-2-.9-2-2h0c0-1.1,.9-2,2-2Z" style="fill:rgba(103,31,232,.4);"/></g></g><path d="M886.28,25.62c.15,0,.26-.05,.34-.13l2.41-2.43c.11-.1,.15-.22,.15-.35s-.05-.26-.15-.35l-2.41-2.45c-.08-.09-.2-.14-.34-.14-.26,0-.46,.21-.46,.48,0,.12,.05,.24,.13,.33l1.57,1.54c-.33-.06-.67-.09-1.01-.09-2.87,0-5.18,2.3-5.18,5.17s2.31,5.19,5.18,5.19,5.17-2.31,5.17-5.19c0-.28-.2-.49-.49-.49s-.46,.21-.46,.49c0,2.36-1.88,4.24-4.23,4.24s-4.24-1.89-4.24-4.24,1.89-4.23,4.24-4.23c.45,0,.85,.04,1.21,.11l-1.75,1.74c-.09,.09-.14,.21-.14,.33,0,.27,.2,.47,.46,.47Z" style="fill:#671fe8;"/><rect x="381.5" y="11.5" width="517" height="29" rx="6.5" ry="6.5" style="fill:none; stroke:#6923e8;"/></svg>