<svg xmlns="http://www.w3.org/2000/svg" width="168" height="30" viewBox="0 0 168 30">
  <g fill="#FFF">
    <path d="M49.17 24L49.17 16.95 51.6 16.95 55.35 24 60.3 24 55.86 16.17C56.92 15.71 57.765 15.015 58.395 14.085 59.025 13.155 59.34 11.97 59.34 10.53 59.34 9.37 59.14 8.4 58.74 7.62 58.34 6.84 57.8 6.215 57.12 5.745 56.44 5.275 55.645 4.94 54.735 4.74 53.825 4.54 52.85 4.44 51.81 4.44L51.81 4.44 44.76 4.44 44.76 24 49.17 24zM51.45 13.44L49.17 13.44 49.17 7.95 51.45 7.95C52.61 7.95 53.495 8.14 54.105 8.52 54.715 8.9 55.02 9.57 55.02 10.53 55.02 11.49 54.715 12.215 54.105 12.705 53.495 13.195 52.61 13.44 51.45 13.44L51.45 13.44zM69.45 24.36C70.35 24.36 71.265 24.21 72.195 23.91 73.125 23.61 73.97 23.2 74.73 22.68L74.73 22.68 73.26 20.01C72.18 20.67 71.11 21 70.05 21 69.05 21 68.205 20.745 67.515 20.235 66.825 19.725 66.38 18.93 66.18 17.85L66.18 17.85 75.09 17.85C75.13 17.67 75.17 17.4 75.21 17.04 75.25 16.68 75.27 16.3 75.27 15.9 75.27 14.88 75.14 13.935 74.88 13.065 74.62 12.195 74.225 11.44 73.695 10.8 73.165 10.16 72.505 9.66 71.715 9.3 70.925 8.94 70 8.76 68.94 8.76 68.04 8.76 67.17 8.94 66.33 9.3 65.49 9.66 64.745 10.175 64.095 10.845 63.445 11.515 62.92 12.335 62.52 13.305 62.12 14.275 61.92 15.36 61.92 16.56 61.92 17.8 62.11 18.9 62.49 19.86 62.87 20.82 63.4 21.635 64.08 22.305 64.76 22.975 65.56 23.485 66.48 23.835 67.4 24.185 68.39 24.36 69.45 24.36zM71.52 14.94L66.15 14.94C66.31 13.98 66.655 13.27 67.185 12.81 67.715 12.35 68.33 12.12 69.03 12.12 69.93 12.12 70.57 12.38 70.95 12.9 71.33 13.42 71.52 14.1 71.52 14.94L71.52 14.94zM82.74 29.52L82.74 25.17 82.59 22.8C83.11 23.3 83.67 23.685 84.27 23.955 84.87 24.225 85.49 24.36 86.13 24.36 86.93 24.36 87.705 24.18 88.455 23.82 89.205 23.46 89.875 22.935 90.465 22.245 91.055 21.555 91.525 20.715 91.875 19.725 92.225 18.735 92.4 17.6 92.4 16.32 92.4 15.18 92.265 14.145 91.995 13.215 91.725 12.285 91.34 11.49 90.84 10.83 90.34 10.17 89.73 9.66 89.01 9.3 88.29 8.94 87.48 8.76 86.58 8.76 85.8 8.76 85.045 8.935 84.315 9.285 83.585 9.635 82.93 10.07 82.35 10.59L82.35 10.59 82.23 10.59 81.93 9.12 78.33 9.12 78.33 29.52 82.74 29.52zM85.11 20.76C84.73 20.76 84.34 20.69 83.94 20.55 83.54 20.41 83.14 20.16 82.74 19.8L82.74 19.8 82.74 13.71C83.58 12.81 84.43 12.36 85.29 12.36 87.01 12.36 87.87 13.7 87.87 16.38 87.87 17.92 87.6 19.035 87.06 19.725 86.52 20.415 85.87 20.76 85.11 20.76zM99.57 24.36C100.07 24.36 100.505 24.325 100.875 24.255 101.245 24.185 101.55 24.1 101.79 24L101.79 24 101.25 20.73C101.13 20.77 101.035 20.79 100.965 20.79L100.965 20.79 100.71 20.79C100.53 20.79 100.355 20.7 100.185 20.52 100.015 20.34 99.93 20.02 99.93 19.56L99.93 19.56 99.93 2.97 95.52 2.97 95.52 19.38C95.52 20.14 95.59 20.825 95.73 21.435 95.87 22.045 96.095 22.565 96.405 22.995 96.715 23.425 97.13 23.76 97.65 24 98.17 24.24 98.81 24.36 99.57 24.36zM105.75 29.82C106.63 29.82 107.395 29.7 108.045 29.46 108.695 29.22 109.275 28.865 109.785 28.395 110.295 27.925 110.745 27.335 111.135 26.625 111.525 25.915 111.9 25.09 112.26 24.15L112.26 24.15 117.42 9.12 113.19 9.12 111.39 15.51C111.21 16.21 111.035 16.915 110.865 17.625 110.695 18.335 110.53 19.04 110.37 19.74L110.37 19.74 110.25 19.74C110.05 19 109.86 18.28 109.68 17.58 109.5 16.88 109.3 16.19 109.08 15.51L109.08 15.51 106.95 9.12 102.51 9.12 108.24 23.61 108.03 24.39C107.83 24.97 107.53 25.44 107.13 25.8 106.73 26.16 106.16 26.34 105.42 26.34 105.26 26.34 105.09 26.32 104.91 26.28 104.73 26.24 104.57 26.2 104.43 26.16L104.43 26.16 103.65 29.52C103.95 29.62 104.26 29.695 104.58 29.745 104.9 29.795 105.29 29.82 105.75 29.82zM127.35 24C128.41 24 129.4 23.885 130.32 23.655 131.24 23.425 132.045 23.075 132.735 22.605 133.425 22.135 133.965 21.54 134.355 20.82 134.745 20.1 134.94 19.24 134.94 18.24 134.94 17.58 134.85 16.995 134.67 16.485 134.49 15.975 134.24 15.53 133.92 15.15 133.6 14.77 133.23 14.455 132.81 14.205 132.39 13.955 131.93 13.77 131.43 13.65L131.43 13.65 131.43 13.53C131.83 13.39 132.185 13.17 132.495 12.87 132.805 12.57 133.07 12.23 133.29 11.85 133.51 11.47 133.68 11.06 133.8 10.62 133.92 10.18 133.98 9.74 133.98 9.3 133.98 8.36 133.795 7.58 133.425 6.96 133.055 6.34 132.545 5.84 131.895 5.46 131.245 5.08 130.485 4.815 129.615 4.665 128.745 4.515 127.8 4.44 126.78 4.44L126.78 4.44 120.09 4.44 120.09 24 127.35 24zM126.57 12.27L124.5 12.27 124.5 7.86 126.6 7.86C127.64 7.86 128.41 8.02 128.91 8.34 129.41 8.66 129.66 9.2 129.66 9.96 129.66 10.66 129.415 11.22 128.925 11.64 128.435 12.06 127.65 12.27 126.57 12.27L126.57 12.27zM126.99 20.58L124.5 20.58 124.5 15.54 126.99 15.54C128.21 15.54 129.12 15.725 129.72 16.095 130.32 16.465 130.62 17.08 130.62 17.94 130.62 19.7 129.41 20.58 126.99 20.58L126.99 20.58zM144.27 24.36C145.21 24.36 146.115 24.185 146.985 23.835 147.855 23.485 148.625 22.98 149.295 22.32 149.965 21.66 150.5 20.845 150.9 19.875 151.3 18.905 151.5 17.8 151.5 16.56 151.5 15.32 151.3 14.215 150.9 13.245 150.5 12.275 149.965 11.46 149.295 10.8 148.625 10.14 147.855 9.635 146.985 9.285 146.115 8.935 145.21 8.76 144.27 8.76 143.33 8.76 142.42 8.935 141.54 9.285 140.66 9.635 139.885 10.14 139.215 10.8 138.545 11.46 138.01 12.275 137.61 13.245 137.21 14.215 137.01 15.32 137.01 16.56 137.01 17.8 137.21 18.905 137.61 19.875 138.01 20.845 138.545 21.66 139.215 22.32 139.885 22.98 140.66 23.485 141.54 23.835 142.42 24.185 143.33 24.36 144.27 24.36zM144.27 20.79C143.35 20.79 142.665 20.41 142.215 19.65 141.765 18.89 141.54 17.86 141.54 16.56 141.54 15.26 141.765 14.23 142.215 13.47 142.665 12.71 143.35 12.33 144.27 12.33 145.17 12.33 145.85 12.71 146.31 13.47 146.77 14.23 147 15.26 147 16.56 147 17.86 146.77 18.89 146.31 19.65 145.85 20.41 145.17 20.79 144.27 20.79zM157.56 24L158.73 21.54C158.91 21.1 159.1 20.665 159.3 20.235 159.5 19.805 159.69 19.38 159.87 18.96L159.87 18.96 159.99 18.96C160.23 19.38 160.465 19.81 160.695 20.25 160.925 20.69 161.16 21.12 161.4 21.54L161.4 21.54 162.84 24 167.58 24 162.99 16.77 167.31 9.12 162.75 9.12 161.73 11.52C161.57 11.94 161.4 12.365 161.22 12.795 161.04 13.225 160.87 13.65 160.71 14.07L160.71 14.07 160.59 14.07C160.37 13.65 160.155 13.225 159.945 12.795 159.735 12.365 159.53 11.94 159.33 11.52L159.33 11.52 158.01 9.12 153.27 9.12 157.56 16.26 153 24 157.56 24zM32.637 12.99L26.103 1.674C25.5052079.645995044 24.4061797.013082738 23.217.012L10.161.012C8.97182029.013082738 7.87279207.645995044 7.275 1.674L.747 12.99C.147062631 14.0178627.147062631 15.2891373.747 16.317L7.275 27.633C7.87082353 28.6637641 8.97042142 29.2992905 10.161 29.301L31.527 29.301C31.7961858 29.2989153 32.0441282 29.1544041 32.1786148 28.9212117 32.3131014 28.6880194 32.314009 28.4010383 32.181 28.167L28.992 22.644 32.637 16.305C33.2236543 15.277865 33.2236543 14.017135 32.637 12.99L32.637 12.99zM23.529 24.09C23.0964561 24.8392681 22.2941225 25.2977444 21.429 25.2900966L11.937 25.2900966C11.0728616 25.2939875 10.272281 24.8365129 9.837 24.09L5.082 15.864C4.65022791 15.1136817 4.65022791 14.1903183 5.082 13.44L9.837 5.205C10.2695439 4.4557319 11.0718775 3.99725558 11.937 4.00490342L21.447 4.00490342C22.3121225 3.99725558 23.1144561 4.4557319 23.547 5.205L28.302 13.431C28.7337721 14.1813183 28.7337721 15.1046817 28.302 15.855L23.529 24.09z"/>
    <polygon points="18.231 11.982 19.767 14.643 9.006 14.643 12.852 7.989 20.535 7.989"/>
  </g>
</svg>